PathFileType	4	(X/Y/Z)	TVC_26_BWA4_walk_RCNL2025.trc
DataRate	CameraRate	NumFrames	NumMarkers	Units	OrigDataRate	OrigDataStartFrame	OrigNumFrames
100	100	8	27	mm	100	156	415
Frame#	Time	R_Shoulder			L_Shoulder			C7			J_Notch			R_Elbow			L_Elbow			R_Wrist			L_Wrist			R_Asis			L_Asis			R_Psis			L_Psis			Sacral			Thoracic			Sternum			R_Thigh_Lateral			R_Knee_Lateral			R_Shank_Lateral			R_Ankle_Lateral			R_Heel			R_Toe			L_Thigh_Lateral			L_Knee_Lateral			L_Shank_Lateral			L_Ankle_Lateral			L_Heel			L_Toe		
		X1	Y1	Z1	X2	Y2	Z2	X3	Y3	Z3	X4	Y4	Z4	X5	Y5	Z5	X6	Y6	Z6	X7	Y7	Z7	X8	Y8	Z8	X9	Y9	Z9	X10	Y10	Z10	X11	Y11	Z11	X12	Y12	Z12	X13	Y13	Z13	X14	Y14	Z14	X15	Y15	Z15	X16	Y16	Z16	X17	Y17	Z17	X18	Y18	Z18	X19	Y19	Z19	X20	Y20	Z20	X21	Y21	Z21	X22	Y22	Z22	X23	Y23	Z23	X24	Y24	Z24	X25	Y25	Z25	X26	Y26	Z26	X27	Y27	Z27
156	1.55000000	75.924454	1363.503906	-152.749954	38.596840	1369.924683	-469.868896	-19.342077	1403.391479	-294.709656	131.787033	1309.556763	-309.987946	39.468266	1030.476562	-23.977125	-8.371892	1045.753906	-579.237549	76.989714	826.531464	37.185451	146.006294	879.063965	-560.655670	157.012375	960.175049	-146.721786	143.215546	958.771545	-438.688629	-57.966331	953.717651	-207.424805	-62.463375	951.901978	-354.876526	-60.214853	952.809814	-281.150665	-69.933960	1122.838379	-297.169220	186.661789	1073.595215	-319.659668	213.163376	585.732422	-97.930664	268.597595	473.814941	-156.898834	205.603363	304.810577	-107.952347	126.886787	117.702675	-164.666473	73.786774	110.428162	-210.791672	250.469467	64.422081	-188.489120	157.545273	585.155762	-458.821198	136.438004	466.361542	-383.549896	95.950439	248.815979	-406.978821	46.286404	65.173874	-320.115967	-1.145747	55.173298	-265.227081	183.202179	39.450161	-306.840515
157	1.56000000	79.920692	1363.628906	-153.999146	43.483841	1369.908447	-471.259338	-14.717997	1403.540649	-296.298035	136.212296	1309.487549	-311.130890	41.536934	1030.971680	-24.955418	-3.562219	1045.795410	-580.735657	77.524420	827.001862	36.938460	150.474358	878.871582	-561.723785	160.984528	960.399048	-147.934860	147.563126	958.266235	-439.492493	-54.013634	953.989441	-208.657532	-58.215214	951.802185	-356.097290	-56.114424	952.895813	-282.377411	-65.708420	1123.036743	-298.641968	190.866653	1073.543823	-320.726318	218.727402	586.115540	-100.159172	275.073090	475.065552	-160.033096	218.922501	303.740204	-110.999046	147.253113	113.587112	-167.726425	94.211884	104.455597	-213.537811	272.594177	64.703972	-193.090027	160.112823	584.705994	-459.083984	137.856384	466.029388	-383.781677	96.332748	248.717117	-407.110718	46.338039	65.196655	-320.126862	-1.197587	55.298603	-265.075836	183.211380	39.377831	-306.738556
158	1.57000000	83.927116	1363.704590	-155.216370	48.358803	1369.859741	-472.621735	-10.052028	1403.657349	-297.871887	140.638123	1309.384399	-312.258514	43.655117	1031.412109	-25.942715	1.214211	1045.790161	-582.172668	78.149740	827.431519	36.627383	154.912468	878.630951	-562.718414	164.933105	960.554932	-149.093414	151.958633	957.710938	-440.221222	-50.073238	954.212891	-209.880890	-53.965218	951.614502	-357.293488	-52.019228	952.913696	-283.587189	-61.483795	1123.202148	-300.083954	195.075043	1073.437988	-321.774994	224.204269	586.394836	-102.292564	281.287506	476.194855	-163.076935	231.778091	302.924164	-114.049606	167.247849	110.005714	-170.981461	114.355255	99.054741	-216.532242	294.149048	65.392715	-197.832901	162.478912	584.204407	-459.385254	139.267929	465.688690	-384.022247	96.625008	248.619080	-407.289001	46.394630	65.211342	-320.115997	-1.245708	55.415932	-264.918976	183.225540	39.309814	-306.636536
159	1.58000000	87.950737	1363.729492	-156.404831	53.225632	1369.776489	-473.956848	-5.344003	1403.738892	-299.431030	145.067123	1309.244629	-313.370789	45.829613	1031.795410	-26.940805	5.961053	1045.735107	-583.549133	78.872381	827.815674	36.250707	159.326714	878.341003	-563.640656	168.862885	960.636841	-150.194519	156.381256	957.123047	-440.900085	-46.140770	954.386902	-211.090912	-49.719975	951.353882	-358.464478	-47.930372	952.870392	-284.777695	-57.259686	1123.334106	-301.495605	199.287933	1073.274780	-322.800323	229.560349	586.563049	-104.350533	287.286774	477.214722	-166.035889	244.193542	302.335938	-117.111137	186.769119	106.967804	-174.421112	134.098862	94.259781	-219.760880	315.035797	66.478767	-202.680603	164.672150	583.659424	-459.730408	140.676849	465.340607	-384.282257	96.870590	248.502991	-407.511688	46.451263	65.218788	-320.085266	-1.284663	55.522823	-264.768707	183.243698	39.247704	-306.540009
160	1.59000000	91.997223	1363.703247	-157.567581	58.087761	1369.656860	-475.265381	-0.596338	1403.783447	-300.974304	149.501526	1309.066040	-314.467621	48.066643	1032.119751	-27.951410	10.682129	1045.628174	-584.865906	79.698652	828.150177	35.807083	163.722305	878.001160	-564.491791	172.779816	960.641357	-151.237244	160.809845	956.519531	-441.555237	-42.211437	954.511108	-212.283875	-45.484531	951.035400	-359.610199	-43.847984	952.773254	-285.947037	-53.035698	1123.432007	-302.877289	203.506012	1073.052856	-323.797821	234.766434	586.626587	-106.352539	293.118042	478.140869	-168.918472	256.192261	301.946930	-120.194305	205.718933	104.468063	-178.030518	153.329681	90.087822	-223.205414	335.163940	67.939972	-207.590668	166.744415	583.082092	-460.120911	142.091415	464.985565	-384.571442	97.112244	248.355881	-407.773376	46.503208	65.220802	-320.037659	-1.310234	55.619762	-264.636444	183.264847	39.191891	-306.453796
161	1.60000000	96.070648	1363.626221	-158.707382	62.948109	1369.499878	-476.548035	4.186590	1403.789429	-302.499908	153.943085	1308.847412	-315.548920	50.371723	1032.383667	-28.976149	15.381437	1045.468018	-586.124634	80.634390	828.431244	35.295259	168.103607	877.611389	-565.273407	176.690598	960.567505	-152.222504	165.224762	955.916016	-442.211884	-38.280167	954.585999	-213.456589	-41.261860	950.673218	-360.731171	-39.771013	952.629608	-287.093880	-48.811375	1123.495850	-304.229309	207.729721	1072.772339	-324.763947	239.815643	586.606445	-108.315140	298.826202	478.990753	-171.734818	267.790100	301.728668	-123.309563	224.006302	102.487343	-181.791077	171.942810	86.538971	-226.843994	354.453766	69.740784	-212.518723	168.759048	582.484741	-460.556213	143.523300	464.623474	-384.897461	97.387527	248.172058	-408.065521	46.546505	65.219780	-319.976776	-1.319611	55.710030	-264.531342	183.288284	39.142075	-306.382172
162	1.61000000	100.173592	1363.499390	-159.826645	67.809036	1369.304810	-477.805573	8.999143	1403.755981	-304.005615	158.393234	1308.587769	-316.614594	52.749527	1032.586792	-30.016533	20.063166	1045.254761	-587.327515	81.684835	828.655823	34.714041	172.474190	877.171997	-565.987396	180.602448	960.416992	-153.152908	169.609406	955.325562	-442.892395	-34.341717	954.612427	-214.606567	-37.052635	950.279602	-361.828522	-35.697176	952.446014	-288.217545	-44.586071	1123.525635	-305.551941	211.959427	1072.435059	-325.696411	244.731964	586.535034	-110.249817	304.449921	479.780853	-174.495102	278.989960	301.652924	-126.463539	241.549927	100.993736	-185.681274	189.844360	83.596893	-230.652206	372.838379	71.831833	-217.421722	170.778381	581.878662	-461.034851	144.986450	464.253540	-385.264893	97.726181	247.952820	-408.376404	46.578423	65.218269	-319.906250	-1.311412	55.799026	-264.458923	183.313705	39.097698	-306.328613
163	1.62000000	104.307190	1363.324219	-160.927475	72.672340	1369.071411	-479.038849	13.835012	1403.682495	-305.489288	162.853043	1308.286987	-317.664703	55.203850	1032.728760	-31.073992	24.731667	1044.989014	-588.477600	82.854609	828.821045	34.062290	176.837021	876.683960	-566.635864	184.522690	960.194275	-154.032547	173.951279	954.757935	-443.615082	-30.390795	954.591858	-215.732040	-32.855297	949.864258	-362.903748	-31.623046	952.228058	-289.317894	-40.358799	1123.521606	-306.845398	216.195511	1072.044067	-326.594360	249.570251	586.447876	-112.161629	310.018188	480.524384	-177.207886	289.779175	301.690857	-129.656204	258.280334	99.944084	-189.677643	206.953735	81.230072	-234.604095	390.265411	74.150520	-222.260788	172.852524	581.272461	-461.554840	146.495392	463.874542	-385.674194	98.148987	247.704300	-408.691772	46.597870	65.218575	-319.829712	-1.285761	55.892982	-264.420258	183.341263	39.058334	-306.295807
